<?xml version="1.0" standalone="no"?>
<!DOCTYPE svg PUBLIC "-//W3C//DTD SVG 20010904//EN"
 "http://www.w3.org/TR/2001/REC-SVG-20010904/DTD/svg10.dtd">
<svg version="1.0" xmlns="http://www.w3.org/2000/svg"
 width="558.000000pt" height="558.000000pt" viewBox="0 0 558.000000 558.000000"
 preserveAspectRatio="xMidYMid meet">
<metadata>
Created by potrace 1.11, written by Peter Selinger 2001-2013
</metadata>
<g transform="translate(0.000000,558.000000) scale(0.100000,-0.100000)"
fill="#000000" stroke="none">
<path d="M0 2790 l0 -2790 2790 0 2790 0 0 2790 0 2790 -2790 0 -2790 0 0
-2790z m3070 610 c0 -203 3 -370 6 -370 4 0 148 45 321 101 174 55 318 97 322
92 17 -20 144 -444 135 -452 -5 -4 -146 -50 -314 -101 -168 -51 -311 -95 -317
-99 -9 -4 56 -106 198 -310 115 -166 209 -306 207 -311 -2 -5 -90 -71 -197
-146 -165 -117 -195 -135 -205 -122 -137 192 -412 567 -416 567 -3 0 -99 -126
-215 -280 -115 -154 -215 -284 -221 -289 -7 -6 -74 35 -195 121 -101 71 -189
135 -196 142 -9 9 38 83 202 317 135 194 209 307 202 311 -10 5 -393 124 -598
185 l-46 14 69 223 c39 122 74 226 78 231 5 4 150 -37 323 -93 173 -56 318
-101 321 -101 3 0 6 167 6 370 l0 370 265 0 265 0 0 -370z"/>
</g>
</svg>
